# xmcd
#
# Track frame offsets: 
#        150
#        18636
#        35767
#        59326
#        76882
#        104920
#        123405
#        138179
#        159120
#        178353
#        196749
#
# Disc length: 2822 seconds
#
# Revision: 0
# Processed by: cddbd v1.5.2PL0 Copyright (c) Steve Scherf et al.
# Submitted via: ExactAudioCopy v1.3
#
DISCID=950b040b
DTITLE=Angel Forrest - Mother Tongue Blues
DYEAR=2012
DGENRE=Blues Rock
TTITLE0=How Do You
TTITLE1=Mother Tongue Blues
TTITLE2=Blue Firegirl
TTITLE3=Morningstar
TTITLE4=Holy Man
TTITLE5=Roll On Down
TTITLE6=Livin It Up
TTITLE7=Wtf
TTITLE8=Listen
TTITLE9=I Got You
TTITLE10=Someone
EXTD=
EXTT0=
EXTT1=
EXTT2=
EXTT3=
EXTT4=
EXTT5=
EXTT6=
EXTT7=
EXTT8=
EXTT9=
EXTT10=
PLAYORDER=
